M48
METRIC,LZ,000.000
;FILE_FORMAT=3:3
;TYPE=PLATED
;Layer: PTH_Through
;EasyEDA v6.5.15, 2022-09-06 17:38:20
;10
;Gerber Generator version 0.2
;Holesize 1 = 0.306 mm
T01C0.306
;Holesize 2 = 0.801 mm
T02C0.801
;Holesize 3 = 0.915 mm
T03C0.915
;Holesize 4 = 1.000 mm
T04C1.000
;Holesize 5 = 1.001 mm
T05C1.001
;Holesize 6 = 1.200 mm
T06C1.200
%
G05
G90
T01
X106130Y005716
X107062Y001823
X090767Y000102
X115826Y006521
X103054Y056484
X078472Y012318
X092379Y002081
X068951Y001189
X081509Y027067
T02
X098862Y-005827G85X098867Y-005827
X101402Y-005827G85X101407Y-005827
X103942Y-005827G85X103947Y-005827
X106482Y-005827G85X106487Y-005827
T03
X043299Y051091
X038299Y051091
X043299Y015991
X038299Y015991
X051299Y020991
X051299Y025991
X051299Y030991
X052899Y048091
X052899Y045591
X052899Y043091
X052899Y040591
X052899Y038091
X052899Y035591
X121653Y051234
X116653Y051234
X121653Y016133
X116653Y016133
X129653Y021133
X129653Y026134
X129653Y031133
X131253Y048233
X131253Y045733
X131253Y043233
X131253Y040733
X131253Y038234
X131253Y035733
X113030Y005715
X110236Y005715
X122936Y005588
X120142Y005588
X132207Y005588
X129413Y005588
T04
X085466Y052467
X085466Y049927
X085466Y047387
X085466Y044847
X085466Y042307
X085466Y039767
X085466Y037227
X085466Y034687
X085466Y032147
X085466Y029607
X085466Y027067
X085466Y024527
X085466Y021987
X085466Y019447
X085466Y016907
X060066Y049927
X060066Y047387
X060066Y044847
X060066Y042307
X060066Y039767
X060066Y037227
X060066Y034687
X060066Y032147
X060066Y029607
X060066Y027067
X060066Y024527
X060066Y021987
X060066Y019447
X060066Y016907
X060066Y052467
X085466Y014367
X085466Y011827
X085466Y055006
X060066Y055006
X060066Y014367
X060066Y011827
X085466Y009287
X060066Y009287
T05
X112263Y-007097
X114803Y-007097
X117343Y-007097
X119883Y-007097
T06
X071115Y-006716
X071115Y-001890
X058288Y-001890
X058288Y-006716
X090038Y-006716
X090038Y-001890
X077211Y-001890
X077211Y-006716
M30
