G04 Layer: BottomSolderMaskLayer*
G04 EasyEDA v6.5.15, 2022-09-06 17:38:20*
G04 Gerber Generator version 0.2*
G04 Scale: 100 percent, Rotated: No, Reflected: No *
G04 Dimensions in millimeters *
G04 leading zeros omitted , absolute positions ,4 integer and 5 decimal *
%FSLAX45Y45*%
%MOMM*%

%AMMACRO1*1,1,$1,$2,$3*1,1,$1,$4,$5*1,1,$1,0-$2,0-$3*1,1,$1,0-$4,0-$5*20,1,$1,$2,$3,$4,$5,0*20,1,$1,$4,$5,0-$2,0-$3,0*20,1,$1,0-$2,0-$3,0-$4,0-$5,0*20,1,$1,0-$4,0-$5,$2,$3,0*4,1,4,$2,$3,$4,$5,0-$2,0-$3,0-$4,0-$5,$2,$3,0*%
%ADD10MACRO1,0.1016X-0.654X0.6541X0.654X0.6541*%
%ADD11C,1.4097*%
%ADD12C,1.8016*%
%ADD13MACRO1,0.1016X0.85X-0.85X-0.85X-0.85*%
%ADD14C,1.6256*%
%ADD15MACRO1,0.2032X-1X1X1X1*%
%ADD16O,1.39954X2.51968*%

%LPD*%
D10*
G01*
X9886414Y-582650D03*
D11*
G01*
X10140414Y-582650D03*
G01*
X10394414Y-582650D03*
G01*
X10648414Y-582650D03*
D12*
G01*
X8546614Y5246662D03*
G01*
X8546614Y4992662D03*
G01*
X8546614Y4738662D03*
G01*
X8546614Y4484662D03*
G01*
X8546614Y4230662D03*
G01*
X8546614Y3976662D03*
G01*
X8546614Y3722662D03*
G01*
X8546614Y3468662D03*
G01*
X8546614Y3214662D03*
G01*
X8546614Y2960662D03*
G01*
X8546614Y2706662D03*
G01*
X8546614Y2452662D03*
G01*
X8546614Y2198662D03*
G01*
X8546614Y1944662D03*
G01*
X8546614Y1690662D03*
G01*
X6006614Y4992662D03*
G01*
X6006614Y4738662D03*
G01*
X6006614Y4484662D03*
G01*
X6006614Y4230662D03*
G01*
X6006614Y3976662D03*
G01*
X6006614Y3722662D03*
G01*
X6006614Y3468662D03*
G01*
X6006614Y3214662D03*
G01*
X6006614Y2960662D03*
G01*
X6006614Y2706662D03*
G01*
X6006614Y2452662D03*
G01*
X6006614Y2198662D03*
G01*
X6006614Y1944662D03*
G01*
X6006614Y1690662D03*
G01*
X6006614Y5246662D03*
G01*
X8546614Y1436662D03*
G01*
X8546614Y1182662D03*
D13*
G01*
X8546602Y5500649D03*
G01*
X6006602Y5500649D03*
D12*
G01*
X6006614Y1436662D03*
G01*
X6006614Y1182662D03*
G01*
X8546614Y928662D03*
G01*
X6006614Y928662D03*
D14*
G01*
X4329887Y5109108D03*
G01*
X3829888Y5109108D03*
G01*
X4329887Y1599107D03*
G01*
X3829888Y1599107D03*
G01*
X5129911Y2099106D03*
G01*
X5129911Y2599105D03*
G01*
X5129911Y3099104D03*
G01*
X5289905Y4809109D03*
G01*
X5289905Y4559096D03*
G01*
X5289905Y4309110D03*
G01*
X5289905Y4059097D03*
G01*
X5289905Y3809111D03*
G01*
X5289905Y3559098D03*
G01*
X12165302Y5123357D03*
G01*
X11665303Y5123357D03*
G01*
X12165302Y1613357D03*
G01*
X11665303Y1613357D03*
G01*
X12965325Y2113356D03*
G01*
X12965325Y2613355D03*
G01*
X12965325Y3113354D03*
G01*
X13125320Y4823358D03*
G01*
X13125320Y4573346D03*
G01*
X13125320Y4323359D03*
G01*
X13125320Y4073347D03*
G01*
X13125320Y3823360D03*
G01*
X13125320Y3573348D03*
G01*
X11303000Y571500D03*
G01*
X11023600Y571500D03*
G01*
X12293600Y558800D03*
G01*
X12014200Y558800D03*
G01*
X13220700Y558800D03*
G01*
X12941300Y558800D03*
D15*
G01*
X7111514Y-671550D03*
G01*
X7111514Y-188950D03*
G01*
X5828814Y-188950D03*
G01*
X5828814Y-671550D03*
G01*
X9003814Y-671550D03*
G01*
X9003814Y-188950D03*
G01*
X7721114Y-188950D03*
G01*
X7721114Y-671550D03*
D16*
G01*
X11226314Y-709650D03*
G01*
X11480314Y-709650D03*
G01*
X11734314Y-709650D03*
G01*
X11988314Y-709650D03*
M02*
