G04 Layer: TopLayer*
G04 EasyEDA v6.5.15, 2022-09-06 17:38:20*
G04 Gerber Generator version 0.2*
G04 Scale: 100 percent, Rotated: No, Reflected: No *
G04 Dimensions in millimeters *
G04 leading zeros omitted , absolute positions ,4 integer and 5 decimal *
%FSLAX45Y45*%
%MOMM*%

%AMMACRO1*21,1,$1,$2,0,0,$3*%
%ADD10C,0.7500*%
%ADD11R,4.0000X2.3000*%
%ADD12R,4.4000X2.3000*%
%ADD13MACRO1,0.864X0.8065X0.0000*%
%ADD14R,0.8640X0.8065*%
%ADD15R,1.3081X1.3081*%
%ADD16C,1.3081*%
%ADD17C,1.7000*%
%ADD18R,1.7000X1.7000*%
%ADD19C,1.5240*%
%ADD20R,2.0000X2.0000*%
%ADD21O,1.39954X2.51968*%
%ADD22C,0.6100*%
%ADD23C,0.0184*%

%LPD*%
G36*
X3365855Y6065723D02*
G01*
X3365957Y5844946D01*
X3366262Y5806389D01*
X3366973Y5776823D01*
X3368243Y5754522D01*
X3369157Y5745632D01*
X3370326Y5737860D01*
X3371646Y5731154D01*
X3373272Y5725210D01*
X3375151Y5719876D01*
X3378504Y5712460D01*
X3381146Y5707634D01*
X3390950Y5692292D01*
X3398520Y5682538D01*
X3406851Y5673547D01*
X3411270Y5669330D01*
X3420618Y5661456D01*
X3430574Y5654446D01*
X3440988Y5648350D01*
X3446373Y5645607D01*
X3457397Y5640832D01*
X3468725Y5637072D01*
X3474465Y5635599D01*
X3486099Y5633364D01*
X3497783Y5632297D01*
X3503625Y5632145D01*
X3529076Y5633313D01*
X3531006Y5684570D01*
X3499662Y5686704D01*
X3493312Y5687466D01*
X3487369Y5688482D01*
X3481832Y5689752D01*
X3476599Y5691276D01*
X3471621Y5693156D01*
X3466846Y5695289D01*
X3462274Y5697778D01*
X3457854Y5700674D01*
X3453485Y5703874D01*
X3449116Y5707532D01*
X3438906Y5717235D01*
X3432657Y5724194D01*
X3430117Y5727903D01*
X3427984Y5732068D01*
X3426104Y5736844D01*
X3424580Y5742533D01*
X3423310Y5749239D01*
X3422294Y5757265D01*
X3421481Y5766816D01*
X3420414Y5791301D01*
X3419957Y5824474D01*
X3419703Y6065723D01*
G37*
G36*
X3174288Y5903518D02*
G01*
X3162757Y5903112D01*
X3151022Y5901791D01*
X3145129Y5900724D01*
X3139186Y5899353D01*
X3133293Y5897676D01*
X3127502Y5895644D01*
X3121710Y5893308D01*
X3116072Y5890615D01*
X3110433Y5887618D01*
X3099409Y5880557D01*
X3093974Y5876493D01*
X3088589Y5872124D01*
X3083255Y5867349D01*
X3072638Y5856833D01*
X3063697Y5846775D01*
X3059988Y5841949D01*
X3056686Y5837123D01*
X3053791Y5832195D01*
X3051149Y5827115D01*
X3048762Y5821629D01*
X3046526Y5815736D01*
X3044444Y5809335D01*
X3040430Y5794451D01*
X3038348Y5783783D01*
X3037636Y5778449D01*
X3037050Y5766562D01*
X3090214Y5766562D01*
X3090265Y5772708D01*
X3090773Y5778906D01*
X3091789Y5785154D01*
X3093313Y5791403D01*
X3094939Y5796280D01*
X3097225Y5801360D01*
X3100070Y5806490D01*
X3103372Y5811672D01*
X3107080Y5816803D01*
X3111144Y5821781D01*
X3115462Y5826506D01*
X3119983Y5830976D01*
X3124606Y5834989D01*
X3129330Y5838596D01*
X3134004Y5841644D01*
X3138576Y5844032D01*
X3143656Y5846013D01*
X3149244Y5847638D01*
X3155188Y5848858D01*
X3161487Y5849772D01*
X3167888Y5850229D01*
X3174441Y5850382D01*
X3180994Y5850128D01*
X3187395Y5849518D01*
X3193592Y5848502D01*
X3199485Y5847181D01*
X3204972Y5845454D01*
X3210001Y5843320D01*
X3214979Y5840730D01*
X3219754Y5837834D01*
X3224225Y5834735D01*
X3228390Y5831382D01*
X3232353Y5827826D01*
X3239363Y5820156D01*
X3242462Y5816041D01*
X3245256Y5811774D01*
X3250031Y5802884D01*
X3251962Y5798261D01*
X3253638Y5793536D01*
X3255010Y5788710D01*
X3256076Y5783834D01*
X3256838Y5778906D01*
X3257346Y5773928D01*
X3257499Y5768949D01*
X3257397Y5763920D01*
X3256991Y5758942D01*
X3256229Y5753963D01*
X3255213Y5749036D01*
X3253892Y5744108D01*
X3252215Y5739282D01*
X3250285Y5734558D01*
X3247999Y5729884D01*
X3245408Y5725312D01*
X3242513Y5720892D01*
X3239312Y5716574D01*
X3235756Y5712409D01*
X3231896Y5708396D01*
X3227679Y5704586D01*
X3223260Y5700979D01*
X3218789Y5697778D01*
X3214217Y5694984D01*
X3209594Y5692597D01*
X3204870Y5690616D01*
X3199942Y5688939D01*
X3194862Y5687669D01*
X3189528Y5686755D01*
X3183940Y5686145D01*
X3178098Y5685891D01*
X3165348Y5686348D01*
X3159048Y5687110D01*
X3152902Y5688330D01*
X3147009Y5689955D01*
X3141268Y5692089D01*
X3135782Y5694578D01*
X3130550Y5697423D01*
X3125571Y5700674D01*
X3120847Y5704281D01*
X3116376Y5708192D01*
X3112262Y5712409D01*
X3108401Y5716879D01*
X3104896Y5721654D01*
X3101695Y5726633D01*
X3098901Y5731865D01*
X3096463Y5737250D01*
X3094380Y5742838D01*
X3092704Y5748578D01*
X3091434Y5754471D01*
X3090621Y5760466D01*
X3090214Y5766562D01*
X3037050Y5766562D01*
X3037433Y5757164D01*
X3037941Y5751880D01*
X3039719Y5741466D01*
X3040888Y5736336D01*
X3043986Y5726226D01*
X3047847Y5716371D01*
X3052572Y5706821D01*
X3058007Y5697626D01*
X3064205Y5688838D01*
X3071063Y5680456D01*
X3078632Y5672632D01*
X3086811Y5665317D01*
X3095599Y5658612D01*
X3100171Y5655462D01*
X3109823Y5649722D01*
X3119932Y5644692D01*
X3130550Y5640425D01*
X3141573Y5636971D01*
X3147263Y5635548D01*
X3158896Y5633415D01*
X3164789Y5632754D01*
X3176524Y5632399D01*
X3182366Y5632602D01*
X3188208Y5633110D01*
X3199688Y5634888D01*
X3205378Y5636158D01*
X3216554Y5639511D01*
X3227425Y5643778D01*
X3237941Y5648960D01*
X3247948Y5655056D01*
X3252825Y5658358D01*
X3262071Y5665622D01*
X3270707Y5673598D01*
X3278682Y5682284D01*
X3285896Y5691632D01*
X3292297Y5701538D01*
X3297783Y5712002D01*
X3300222Y5717438D01*
X3304286Y5728665D01*
X3305962Y5734405D01*
X3307334Y5740298D01*
X3309213Y5752084D01*
X3310128Y5763666D01*
X3310026Y5775045D01*
X3309620Y5780684D01*
X3308096Y5791657D01*
X3305759Y5802325D01*
X3304286Y5807557D01*
X3300679Y5817768D01*
X3296259Y5827522D01*
X3293821Y5832297D01*
X3288334Y5841390D01*
X3282137Y5850077D01*
X3275329Y5858205D01*
X3267913Y5865825D01*
X3259937Y5872784D01*
X3251403Y5879185D01*
X3242360Y5884926D01*
X3232861Y5889904D01*
X3222955Y5894222D01*
X3212693Y5897727D01*
X3202076Y5900470D01*
X3191154Y5902350D01*
X3185566Y5902960D01*
G37*
G36*
X2836062Y5902756D02*
G01*
X2829712Y5902401D01*
X2823819Y5901791D01*
X2818485Y5900877D01*
X2812440Y5899454D01*
X2806446Y5897727D01*
X2800553Y5895695D01*
X2794762Y5893358D01*
X2789072Y5890768D01*
X2783484Y5887923D01*
X2772664Y5881420D01*
X2767482Y5877814D01*
X2757525Y5869889D01*
X2748280Y5861100D01*
X2743962Y5856376D01*
X2735884Y5846368D01*
X2732176Y5841085D01*
X2725470Y5830062D01*
X2722473Y5824321D01*
X2711399Y5801563D01*
X2711242Y5774588D01*
X2763774Y5774588D01*
X2763926Y5779871D01*
X2764485Y5784596D01*
X2765399Y5789117D01*
X2766822Y5793689D01*
X2768701Y5798566D01*
X2773629Y5809132D01*
X2776524Y5813907D01*
X2779674Y5818428D01*
X2783128Y5822645D01*
X2786837Y5826607D01*
X2790799Y5830316D01*
X2795016Y5833719D01*
X2799435Y5836818D01*
X2804007Y5839663D01*
X2808833Y5842152D01*
X2813761Y5844336D01*
X2818841Y5846216D01*
X2824022Y5847791D01*
X2829356Y5849010D01*
X2834741Y5849874D01*
X2840177Y5850432D01*
X2845663Y5850636D01*
X2851200Y5850483D01*
X2856738Y5849924D01*
X2862275Y5849061D01*
X2867761Y5847791D01*
X2873248Y5846114D01*
X2878632Y5844082D01*
X2883916Y5841695D01*
X2888894Y5839002D01*
X2893568Y5836107D01*
X2897936Y5833008D01*
X2902051Y5829655D01*
X2905861Y5826099D01*
X2909417Y5822391D01*
X2912668Y5818479D01*
X2915666Y5814415D01*
X2918358Y5810250D01*
X2920796Y5805881D01*
X2922930Y5801461D01*
X2924810Y5796940D01*
X2926384Y5792317D01*
X2928670Y5782868D01*
X2929839Y5773216D01*
X2929991Y5768390D01*
X2929890Y5763514D01*
X2928823Y5753862D01*
X2927858Y5749137D01*
X2926588Y5744413D01*
X2925064Y5739739D01*
X2921152Y5730748D01*
X2918764Y5726379D01*
X2916123Y5722162D01*
X2913176Y5718048D01*
X2909976Y5714136D01*
X2906420Y5710326D01*
X2902661Y5706770D01*
X2898597Y5703366D01*
X2894228Y5700166D01*
X2889554Y5697220D01*
X2884627Y5694476D01*
X2874162Y5689549D01*
X2869641Y5687974D01*
X2865221Y5686856D01*
X2860598Y5686145D01*
X2855417Y5685840D01*
X2849422Y5685840D01*
X2835503Y5686552D01*
X2829610Y5687110D01*
X2824480Y5687923D01*
X2819857Y5688990D01*
X2815488Y5690412D01*
X2811170Y5692241D01*
X2806750Y5694578D01*
X2796032Y5701284D01*
X2790698Y5705348D01*
X2785872Y5709615D01*
X2781604Y5714136D01*
X2777845Y5718860D01*
X2774543Y5723890D01*
X2771749Y5729173D01*
X2769362Y5734812D01*
X2767482Y5740857D01*
X2766009Y5747207D01*
X2764942Y5754014D01*
X2763875Y5768492D01*
X2763774Y5774588D01*
X2711242Y5774588D01*
X2709468Y5470093D01*
X2763520Y5470093D01*
X2763672Y5610352D01*
X2763977Y5626760D01*
X2764536Y5638850D01*
X2765450Y5647182D01*
X2766110Y5650077D01*
X2766872Y5652211D01*
X2767736Y5653684D01*
X2768752Y5654548D01*
X2769971Y5654802D01*
X2771292Y5654548D01*
X2774594Y5652871D01*
X2778607Y5649925D01*
X2781858Y5647842D01*
X2786024Y5645759D01*
X2791002Y5643626D01*
X2796590Y5641543D01*
X2809138Y5637733D01*
X2822346Y5634583D01*
X2835046Y5632399D01*
X2840837Y5631840D01*
X2845968Y5631637D01*
X2851962Y5631789D01*
X2858058Y5632297D01*
X2864154Y5633110D01*
X2870301Y5634228D01*
X2876397Y5635650D01*
X2888589Y5639358D01*
X2894584Y5641644D01*
X2906369Y5646928D01*
X2917647Y5653227D01*
X2923082Y5656681D01*
X2933344Y5664250D01*
X2938170Y5668314D01*
X2942793Y5672582D01*
X2947111Y5677001D01*
X2951175Y5681624D01*
X2954985Y5686348D01*
X2961792Y5696305D01*
X2967634Y5706618D01*
X2972409Y5717184D01*
X2974441Y5722569D01*
X2977794Y5733440D01*
X2980131Y5744464D01*
X2980994Y5750052D01*
X2981960Y5761177D01*
X2981960Y5772251D01*
X2981096Y5783326D01*
X2979369Y5794197D01*
X2976727Y5804966D01*
X2973273Y5815431D01*
X2968955Y5825591D01*
X2963824Y5835446D01*
X2957880Y5844844D01*
X2951175Y5853734D01*
X2943707Y5862116D01*
X2935427Y5869889D01*
X2926486Y5877052D01*
X2916783Y5883452D01*
X2911652Y5886399D01*
X2900934Y5891631D01*
X2895295Y5893917D01*
X2889808Y5895848D01*
X2883763Y5897524D01*
X2877362Y5898997D01*
X2870606Y5900267D01*
X2863697Y5901283D01*
X2849626Y5902553D01*
G37*
G36*
X2195118Y5900775D02*
G01*
X2180285Y5900369D01*
X2174036Y5899810D01*
X2168347Y5899048D01*
X2163013Y5898032D01*
X2157831Y5896660D01*
X2152700Y5894984D01*
X2141880Y5890514D01*
X2136546Y5887974D01*
X2126437Y5882335D01*
X2117039Y5876137D01*
X2108352Y5869381D01*
X2100376Y5862066D01*
X2093163Y5854293D01*
X2086660Y5846064D01*
X2080869Y5837478D01*
X2075840Y5828538D01*
X2071471Y5819343D01*
X2067864Y5809894D01*
X2065020Y5800191D01*
X2063936Y5795670D01*
X2117598Y5795670D01*
X2118410Y5798820D01*
X2120442Y5803036D01*
X2123490Y5808014D01*
X2127402Y5813501D01*
X2131872Y5819190D01*
X2136749Y5824829D01*
X2141778Y5830062D01*
X2146808Y5834684D01*
X2150821Y5837783D01*
X2155240Y5840526D01*
X2160066Y5842965D01*
X2165197Y5845048D01*
X2170582Y5846775D01*
X2176221Y5848146D01*
X2182012Y5849162D01*
X2187956Y5849823D01*
X2194001Y5850128D01*
X2200046Y5850077D01*
X2206040Y5849620D01*
X2212035Y5848807D01*
X2217877Y5847638D01*
X2223566Y5846064D01*
X2229053Y5844133D01*
X2234285Y5841796D01*
X2243175Y5837224D01*
X2249576Y5833465D01*
X2253640Y5830163D01*
X2255418Y5826912D01*
X2254910Y5823508D01*
X2252268Y5819546D01*
X2247442Y5814720D01*
X2222398Y5793130D01*
X2159406Y5793181D01*
X2140661Y5793587D01*
X2126488Y5794248D01*
X2118614Y5795162D01*
X2117598Y5795670D01*
X2063936Y5795670D01*
X2062886Y5790387D01*
X2061464Y5780481D01*
X2060803Y5770473D01*
X2060905Y5760466D01*
X2061667Y5750509D01*
X2063242Y5740603D01*
X2065528Y5730798D01*
X2068575Y5721197D01*
X2072335Y5711799D01*
X2074468Y5707176D01*
X2079396Y5698185D01*
X2082088Y5693816D01*
X2088134Y5685332D01*
X2091385Y5681218D01*
X2098548Y5673344D01*
X2106422Y5665927D01*
X2115058Y5659018D01*
X2124456Y5652668D01*
X2134565Y5646928D01*
X2145334Y5641949D01*
X2150872Y5639816D01*
X2156561Y5637936D01*
X2168093Y5634990D01*
X2173986Y5633872D01*
X2185924Y5632450D01*
X2191918Y5632094D01*
X2197963Y5631992D01*
X2210003Y5632500D01*
X2221890Y5634024D01*
X2227783Y5635142D01*
X2239314Y5638088D01*
X2244953Y5639917D01*
X2250490Y5642000D01*
X2255926Y5644337D01*
X2266289Y5649620D01*
X2275992Y5655868D01*
X2283358Y5661812D01*
X2313533Y5688279D01*
X2357424Y5728004D01*
X2411171Y5777280D01*
X2437942Y5801258D01*
X2469591Y5828639D01*
X2482545Y5838952D01*
X2485948Y5841187D01*
X2490927Y5843422D01*
X2496413Y5845251D01*
X2502357Y5846724D01*
X2508554Y5847740D01*
X2514955Y5848350D01*
X2521458Y5848553D01*
X2527960Y5848350D01*
X2534310Y5847791D01*
X2540508Y5846775D01*
X2546299Y5845352D01*
X2551734Y5843524D01*
X2556611Y5841288D01*
X2562047Y5838240D01*
X2567076Y5834938D01*
X2571750Y5831535D01*
X2576068Y5827877D01*
X2579979Y5824016D01*
X2583586Y5819952D01*
X2586786Y5815634D01*
X2589631Y5811164D01*
X2592171Y5806389D01*
X2594305Y5801410D01*
X2596134Y5796178D01*
X2597607Y5790692D01*
X2598775Y5784900D01*
X2599588Y5778906D01*
X2600096Y5772556D01*
X2600198Y5758281D01*
X2599994Y5751931D01*
X2599486Y5746597D01*
X2598623Y5741974D01*
X2597353Y5737758D01*
X2595524Y5733542D01*
X2593187Y5729071D01*
X2590139Y5724042D01*
X2586583Y5718708D01*
X2582570Y5713679D01*
X2578201Y5708954D01*
X2573528Y5704586D01*
X2568549Y5700623D01*
X2563368Y5697016D01*
X2557932Y5693765D01*
X2552293Y5690920D01*
X2546502Y5688533D01*
X2540609Y5686602D01*
X2534666Y5685078D01*
X2528671Y5684062D01*
X2522677Y5683504D01*
X2516682Y5683504D01*
X2510739Y5683961D01*
X2504948Y5684977D01*
X2490978Y5688126D01*
X2490978Y5630824D01*
X2531211Y5632754D01*
X2538984Y5633415D01*
X2545689Y5634228D01*
X2551684Y5635396D01*
X2557373Y5636920D01*
X2563114Y5638952D01*
X2575966Y5644642D01*
X2581097Y5647182D01*
X2590800Y5652820D01*
X2599842Y5659018D01*
X2604109Y5662269D01*
X2612085Y5669229D01*
X2619400Y5676646D01*
X2626004Y5684469D01*
X2631897Y5692648D01*
X2637129Y5701182D01*
X2641650Y5709970D01*
X2645460Y5719064D01*
X2648559Y5728360D01*
X2650998Y5737809D01*
X2652725Y5747410D01*
X2653741Y5757062D01*
X2654096Y5766765D01*
X2653741Y5776468D01*
X2652674Y5786170D01*
X2650947Y5795772D01*
X2648508Y5805220D01*
X2645359Y5814568D01*
X2641549Y5823661D01*
X2636977Y5832551D01*
X2631795Y5841136D01*
X2625852Y5849366D01*
X2619248Y5857290D01*
X2611932Y5864758D01*
X2603906Y5871768D01*
X2595219Y5878322D01*
X2585821Y5884316D01*
X2575763Y5889752D01*
X2569718Y5892596D01*
X2564333Y5894832D01*
X2559202Y5896508D01*
X2553766Y5897676D01*
X2547569Y5898438D01*
X2540101Y5898896D01*
X2509520Y5899099D01*
X2500426Y5898794D01*
X2492095Y5898184D01*
X2484272Y5897118D01*
X2476804Y5895441D01*
X2469489Y5893054D01*
X2462022Y5889802D01*
X2454249Y5885586D01*
X2445918Y5880201D01*
X2436825Y5873648D01*
X2426766Y5865672D01*
X2415489Y5856173D01*
X2388565Y5832246D01*
X2285644Y5737707D01*
X2260041Y5714796D01*
X2246376Y5703214D01*
X2236876Y5696000D01*
X2229866Y5691733D01*
X2226767Y5690209D01*
X2220569Y5687872D01*
X2215540Y5686552D01*
X2210155Y5685586D01*
X2204466Y5684977D01*
X2198624Y5684672D01*
X2192680Y5684774D01*
X2186736Y5685180D01*
X2180844Y5685891D01*
X2175103Y5686958D01*
X2169617Y5688380D01*
X2164435Y5690108D01*
X2159660Y5692140D01*
X2153259Y5695746D01*
X2146808Y5700318D01*
X2140458Y5705703D01*
X2134463Y5711596D01*
X2128977Y5717794D01*
X2124252Y5724144D01*
X2120442Y5730392D01*
X2117852Y5736336D01*
X2114448Y5746038D01*
X2236927Y5746292D01*
X2320493Y5825591D01*
X2305507Y5847232D01*
X2298141Y5856579D01*
X2290521Y5864961D01*
X2282545Y5872429D01*
X2274163Y5878931D01*
X2269845Y5881878D01*
X2265426Y5884570D01*
X2256180Y5889294D01*
X2246426Y5893206D01*
X2236114Y5896254D01*
X2225243Y5898489D01*
X2219553Y5899353D01*
X2207666Y5900420D01*
G37*
D10*
X13125322Y3573348D02*
G01*
X8905290Y3573348D01*
X8546617Y3214674D01*
X13125322Y3823360D02*
G01*
X8901302Y3823360D01*
X8546617Y3468674D01*
X13125322Y4073347D02*
G01*
X8897289Y4073347D01*
X8546617Y3722674D01*
X12965328Y2113356D02*
G01*
X11630202Y778230D01*
X5129911Y778230D01*
X5129911Y2099106D02*
G01*
X5129911Y778230D01*
X5129911Y778230D02*
G01*
X3940632Y778230D01*
X3225901Y63500D01*
X9003817Y-188950D02*
G01*
X9352254Y-188950D01*
X9745954Y-582650D01*
X9886416Y-582650D02*
G01*
X9745954Y-582650D01*
X11226317Y-709650D02*
G01*
X11203076Y-732891D01*
X10036657Y-732891D01*
X9886416Y-582650D01*
X7111517Y-188950D02*
G01*
X7111517Y-364007D01*
X1054201Y88900D02*
G01*
X1980133Y-837031D01*
X6915886Y-837031D01*
X6948830Y-804087D01*
X7111517Y-364007D02*
G01*
X6948830Y-526694D01*
X6948830Y-804087D01*
X6948830Y-804087D02*
G01*
X6992010Y-847267D01*
X9481337Y-847267D01*
X9745954Y-582650D01*
X6895109Y118922D02*
G01*
X6311747Y118922D01*
X6003874Y-188950D01*
X5828817Y-188950D02*
G01*
X6003874Y-188950D01*
X8546617Y2706674D02*
G01*
X8150936Y2706674D01*
X9237903Y208076D02*
G01*
X10590326Y208076D01*
X10953750Y571500D01*
X11023600Y571500D01*
X7286574Y-671550D02*
G01*
X7449261Y-508863D01*
X7726883Y-508863D01*
X8695359Y459612D01*
X9816617Y459612D01*
X7111517Y-671550D02*
G01*
X7286574Y-671550D01*
X9003817Y-671550D02*
G01*
X9003817Y-496493D01*
X10172217Y446912D02*
G01*
X10172217Y331546D01*
X10172217Y331546D02*
G01*
X9219768Y331546D01*
X8841130Y-47091D01*
X8841130Y-333806D01*
X9003817Y-496493D01*
X6006617Y1944674D02*
G01*
X7134326Y1944674D01*
X7847202Y1231798D01*
X3829888Y5109108D02*
G01*
X4369130Y5648350D01*
X10305364Y5648350D01*
X11303000Y571500D02*
G01*
X11383619Y652119D01*
X11582628Y652119D01*
X11582628Y652145D01*
X12293600Y558800D02*
G01*
X11745010Y10210D01*
X9076740Y10210D01*
X10706176Y182321D02*
G01*
X11637721Y182321D01*
X12014200Y558800D01*
X5129911Y2599105D02*
G01*
X5129911Y2447315D01*
X6006617Y2198674D02*
G01*
X5378551Y2198674D01*
X5129911Y2447315D01*
X5129911Y2447315D02*
G01*
X4979644Y2447315D01*
X2929254Y396925D01*
X2929254Y88900D01*
X9875748Y610285D02*
G01*
X9934879Y610285D01*
X10172217Y597585D02*
G01*
X9947579Y597585D01*
X9934879Y610285D01*
X10290479Y597585D02*
G01*
X10316463Y571601D01*
X10612983Y571601D01*
X10172217Y597585D02*
G01*
X10290479Y597585D01*
X9875748Y610285D02*
G01*
X9816617Y610285D01*
X9816617Y610285D02*
G01*
X5647740Y610285D01*
X5100954Y63500D01*
X4825898Y63500D02*
G01*
X5100954Y63500D01*
X2654198Y88900D02*
G01*
X2791739Y88900D01*
X2791739Y88900D02*
G01*
X2929254Y88900D01*
X2791739Y88900D02*
G01*
X2791739Y64236D01*
X2973704Y-117729D01*
X4414951Y-117729D01*
X4550841Y18161D01*
X4550841Y63500D01*
X4825898Y63500D02*
G01*
X4550841Y63500D01*
D11*
G01*
X2654198Y88900D03*
D12*
G01*
X1054201Y88900D03*
D11*
G01*
X4825898Y63500D03*
D12*
G01*
X3225901Y63500D03*
D13*
G01*
X9816614Y610274D03*
D14*
G01*
X9816614Y459612D03*
D13*
G01*
X10172214Y597574D03*
D14*
G01*
X10172214Y446912D03*
D15*
G01*
X9886414Y-582650D03*
D16*
G01*
X10140414Y-582650D03*
G01*
X10394414Y-582650D03*
G01*
X10648414Y-582650D03*
D17*
G01*
X8546614Y5246662D03*
G01*
X8546614Y4992662D03*
G01*
X8546614Y4738662D03*
G01*
X8546614Y4484662D03*
G01*
X8546614Y4230662D03*
G01*
X8546614Y3976662D03*
G01*
X8546614Y3722662D03*
G01*
X8546614Y3468662D03*
G01*
X8546614Y3214662D03*
G01*
X8546614Y2960662D03*
G01*
X8546614Y2706662D03*
G01*
X8546614Y2452662D03*
G01*
X8546614Y2198662D03*
G01*
X8546614Y1944662D03*
G01*
X8546614Y1690662D03*
G01*
X6006614Y4992662D03*
G01*
X6006614Y4738662D03*
G01*
X6006614Y4484662D03*
G01*
X6006614Y4230662D03*
G01*
X6006614Y3976662D03*
G01*
X6006614Y3722662D03*
G01*
X6006614Y3468662D03*
G01*
X6006614Y3214662D03*
G01*
X6006614Y2960662D03*
G01*
X6006614Y2706662D03*
G01*
X6006614Y2452662D03*
G01*
X6006614Y2198662D03*
G01*
X6006614Y1944662D03*
G01*
X6006614Y1690662D03*
G01*
X6006614Y5246662D03*
G01*
X8546614Y1436662D03*
G01*
X8546614Y1182662D03*
D18*
G01*
X8546614Y5500636D03*
G01*
X6006614Y5500636D03*
D17*
G01*
X6006614Y1436662D03*
G01*
X6006614Y1182662D03*
G01*
X8546614Y928662D03*
G01*
X6006614Y928662D03*
D19*
G01*
X4329887Y5109108D03*
G01*
X3829888Y5109108D03*
G01*
X4329887Y1599107D03*
G01*
X3829888Y1599107D03*
G01*
X5129911Y2099106D03*
G01*
X5129911Y2599105D03*
G01*
X5129911Y3099104D03*
G01*
X5289905Y4809109D03*
G01*
X5289905Y4559096D03*
G01*
X5289905Y4309110D03*
G01*
X5289905Y4059097D03*
G01*
X5289905Y3809111D03*
G01*
X5289905Y3559098D03*
G01*
X12165302Y5123357D03*
G01*
X11665303Y5123357D03*
G01*
X12165302Y1613357D03*
G01*
X11665303Y1613357D03*
G01*
X12965325Y2113356D03*
G01*
X12965325Y2613355D03*
G01*
X12965325Y3113354D03*
G01*
X13125320Y4823358D03*
G01*
X13125320Y4573346D03*
G01*
X13125320Y4323359D03*
G01*
X13125320Y4073347D03*
G01*
X13125320Y3823360D03*
G01*
X13125320Y3573348D03*
G01*
X11303000Y571500D03*
G01*
X11023600Y571500D03*
G01*
X12293600Y558800D03*
G01*
X12014200Y558800D03*
G01*
X13220700Y558800D03*
G01*
X12941300Y558800D03*
D20*
G01*
X7111514Y-671550D03*
G01*
X7111514Y-188950D03*
G01*
X5828814Y-188950D03*
G01*
X5828814Y-671550D03*
G01*
X9003814Y-671550D03*
G01*
X9003814Y-188950D03*
G01*
X7721114Y-188950D03*
G01*
X7721114Y-671550D03*
D21*
G01*
X11226314Y-709650D03*
G01*
X11480314Y-709650D03*
G01*
X11734314Y-709650D03*
G01*
X11988314Y-709650D03*
D22*
G01*
X10612983Y571601D03*
G01*
X10706176Y182321D03*
G01*
X9076740Y10210D03*
G01*
X11582628Y652145D03*
G01*
X10305364Y5648350D03*
G01*
X7847202Y1231798D03*
G01*
X9237903Y208076D03*
G01*
X6895109Y118922D03*
G01*
X8150936Y2706674D03*
M02*
