G04 Layer: BottomSilkscreenLayer*
G04 EasyEDA v6.5.15, 2022-09-06 17:38:20*
G04 Gerber Generator version 0.2*
G04 Scale: 100 percent, Rotated: No, Reflected: No *
G04 Dimensions in millimeters *
G04 leading zeros omitted , absolute positions ,4 integer and 5 decimal *
%FSLAX45Y45*%
%MOMM*%

%ADD10C,0.2032*%

%LPD*%
D10*
X11262799Y-455650D02*
G01*
X11186426Y-426554D01*
X11262799Y-397461D02*
G01*
X11186426Y-426554D01*
X11244615Y-318907D02*
G01*
X11251887Y-322541D01*
X11259162Y-329816D01*
X11262799Y-337091D01*
X11262799Y-351637D01*
X11259162Y-358912D01*
X11251887Y-366184D01*
X11244615Y-369821D01*
X11233703Y-373458D01*
X11215519Y-373458D01*
X11204610Y-369821D01*
X11197336Y-366184D01*
X11190061Y-358912D01*
X11186426Y-351637D01*
X11186426Y-337091D01*
X11190061Y-329816D01*
X11197336Y-322541D01*
X11204610Y-318907D01*
X11244615Y-240350D02*
G01*
X11251887Y-243987D01*
X11259162Y-251261D01*
X11262799Y-258533D01*
X11262799Y-273083D01*
X11259162Y-280355D01*
X11251887Y-287629D01*
X11244615Y-291266D01*
X11233703Y-294904D01*
X11215519Y-294904D01*
X11204610Y-291266D01*
X11197336Y-287629D01*
X11190061Y-280355D01*
X11186426Y-273083D01*
X11186426Y-258533D01*
X11190061Y-251261D01*
X11197336Y-243987D01*
X11204610Y-240350D01*
X11516799Y-430192D02*
G01*
X11440426Y-430192D01*
X11516799Y-455650D02*
G01*
X11516799Y-404736D01*
X11516799Y-380733D02*
G01*
X11440426Y-380733D01*
X11516799Y-380733D02*
G01*
X11516799Y-348000D01*
X11513162Y-337091D01*
X11509524Y-333453D01*
X11502250Y-329816D01*
X11494978Y-329816D01*
X11487703Y-333453D01*
X11484066Y-337091D01*
X11480431Y-348000D01*
X11480431Y-380733D01*
X11480431Y-355274D02*
G01*
X11440426Y-329816D01*
X11516799Y-305813D02*
G01*
X11440426Y-305813D01*
X11498615Y-227258D02*
G01*
X11505887Y-230896D01*
X11513162Y-238168D01*
X11516799Y-245442D01*
X11516799Y-259989D01*
X11513162Y-267263D01*
X11505887Y-274535D01*
X11498615Y-278173D01*
X11487703Y-281810D01*
X11469519Y-281810D01*
X11458610Y-278173D01*
X11451336Y-274535D01*
X11444061Y-267263D01*
X11440426Y-259989D01*
X11440426Y-245442D01*
X11444061Y-238168D01*
X11451336Y-230896D01*
X11458610Y-227258D01*
X11469519Y-227258D01*
X11469519Y-245442D02*
G01*
X11469519Y-227258D01*
X11785287Y-459196D02*
G01*
X11708914Y-459196D01*
X11785287Y-459196D02*
G01*
X11785287Y-411916D01*
X11748919Y-459196D02*
G01*
X11748919Y-430100D01*
X11708914Y-459196D02*
G01*
X11708914Y-411916D01*
X11767103Y-333362D02*
G01*
X11774378Y-336997D01*
X11781650Y-344271D01*
X11785287Y-351546D01*
X11785287Y-366092D01*
X11781650Y-373367D01*
X11774378Y-380639D01*
X11767103Y-384276D01*
X11756194Y-387913D01*
X11738008Y-387913D01*
X11727098Y-384276D01*
X11719824Y-380639D01*
X11712552Y-373367D01*
X11708914Y-366092D01*
X11708914Y-351546D01*
X11712552Y-344271D01*
X11719824Y-336997D01*
X11727098Y-333362D01*
X11785287Y-309359D02*
G01*
X11708914Y-309359D01*
X11785287Y-258442D02*
G01*
X11708914Y-258442D01*
X11748919Y-309359D02*
G01*
X11748919Y-258442D01*
X11785287Y-212618D02*
G01*
X11781650Y-219892D01*
X11774378Y-227167D01*
X11767103Y-230802D01*
X11756194Y-234439D01*
X11738008Y-234439D01*
X11727098Y-230802D01*
X11719824Y-227167D01*
X11712552Y-219892D01*
X11708914Y-212618D01*
X11708914Y-198071D01*
X11712552Y-190797D01*
X11719824Y-183525D01*
X11727098Y-179887D01*
X11738008Y-176250D01*
X11756194Y-176250D01*
X11767103Y-179887D01*
X11774378Y-183525D01*
X11781650Y-190797D01*
X11785287Y-198071D01*
X11785287Y-212618D01*
X12021103Y-402287D02*
G01*
X12028378Y-405925D01*
X12035650Y-413197D01*
X12039287Y-420471D01*
X12039287Y-435018D01*
X12035650Y-442292D01*
X12028378Y-449567D01*
X12021103Y-453202D01*
X12010194Y-456839D01*
X11992010Y-456839D01*
X11981098Y-453202D01*
X11973824Y-449567D01*
X11966552Y-442292D01*
X11962914Y-435018D01*
X11962914Y-420471D01*
X11966552Y-413197D01*
X11973824Y-405925D01*
X11981098Y-402287D01*
X11992010Y-402287D01*
X11992010Y-420471D02*
G01*
X11992010Y-402287D01*
X12039287Y-378284D02*
G01*
X11962914Y-378284D01*
X12039287Y-378284D02*
G01*
X11962914Y-327367D01*
X12039287Y-327367D02*
G01*
X11962914Y-327367D01*
X12039287Y-303364D02*
G01*
X11962914Y-303364D01*
X12039287Y-303364D02*
G01*
X12039287Y-277909D01*
X12035650Y-266997D01*
X12028378Y-259725D01*
X12021103Y-256087D01*
X12010194Y-252450D01*
X11992010Y-252450D01*
X11981098Y-256087D01*
X11973824Y-259725D01*
X11966552Y-266997D01*
X11962914Y-277909D01*
X11962914Y-303364D01*
M02*
